<?xml version="1.0" encoding="UTF-8" standalone="no"?>
<svg
   id="Layer_1"
   data-name="Layer 1"
   viewBox="0 0 90 90"
   version="1.1"
   sodipodi:docname="blueapi_logo.svg"
   inkscape:version="1.2.2 (732a01da63, 2022-12-09)"
   width="90"
   height="90"
   xmlns:inkscape="http://www.inkscape.org/namespaces/inkscape"
   xmlns:sodipodi="http://sodipodi.sourceforge.net/DTD/sodipodi-0.dtd"
   xmlns:xlink="http://www.w3.org/1999/xlink"
   xmlns="http://www.w3.org/2000/svg"
   xmlns:svg="http://www.w3.org/2000/svg"
   xmlns:rdf="http://www.w3.org/1999/02/22-rdf-syntax-ns#"
   xmlns:cc="http://creativecommons.org/ns#"
   xmlns:dc="http://purl.org/dc/elements/1.1/">
  <sodipodi:namedview
     id="namedview74"
     pagecolor="#ffffff"
     bordercolor="#000000"
     borderopacity="0.25"
     inkscape:showpageshadow="2"
     inkscape:pageopacity="0.0"
     inkscape:pagecheckerboard="0"
     inkscape:deskcolor="#d1d1d1"
     showgrid="true"
     inkscape:zoom="5.9416611"
     inkscape:cx="40.308593"
     inkscape:cy="42.32823"
     inkscape:window-width="1600"
     inkscape:window-height="838"
     inkscape:window-x="-6"
     inkscape:window-y="-6"
     inkscape:window-maximized="1"
     inkscape:current-layer="Layer_1">
    <inkscape:grid
       type="xygrid"
       id="grid453"
       originx="-30.134247"
       originy="-27.791912" />
  </sodipodi:namedview>
  <defs
     id="defs53">
    <style
       id="style39">.cls-1{fill:url(#linear-gradient);}.cls-2{fill:url(#linear-gradient-2);}.cls-3{fill:url(#linear-gradient-3);}.cls-4{fill:url(#linear-gradient-4);}.cls-5{fill:url(#linear-gradient-5);}.cls-6{fill:url(#linear-gradient-6);}.cls-7{fill:url(#linear-gradient-7);}.cls-8{fill:url(#linear-gradient-8);}</style>
    <linearGradient
       id="linear-gradient"
       x1="115.44"
       y1="75.82"
       x2="115.44"
       y2="13.97"
       gradientUnits="userSpaceOnUse">
      <stop
         offset="0"
         stop-color="#5db0d8"
         id="stop41" />
      <stop
         offset="1"
         stop-color="#477fb9"
         id="stop43" />
    </linearGradient>
    <linearGradient
       id="linear-gradient-2"
       x1="138.96001"
       y1="75.82"
       x2="138.96001"
       y2="13.97"
       xlink:href="#linear-gradient" />
    <linearGradient
       id="linear-gradient-3"
       x1="170.28999"
       y1="75.82"
       x2="170.28999"
       y2="13.97"
       xlink:href="#linear-gradient" />
    <linearGradient
       id="linear-gradient-4"
       x1="199.82001"
       y1="75.82"
       x2="199.82001"
       y2="13.97"
       xlink:href="#linear-gradient" />
    <linearGradient
       id="linear-gradient-5"
       x1="231.42"
       y1="75.82"
       x2="231.42"
       y2="13.97"
       xlink:href="#linear-gradient" />
    <linearGradient
       id="linear-gradient-6"
       x1="261"
       y1="75.82"
       x2="261"
       y2="13.97"
       xlink:href="#linear-gradient" />
    <linearGradient
       id="linear-gradient-7"
       x1="87.709999"
       y1="75.82"
       x2="87.709999"
       y2="13.97"
       xlink:href="#linear-gradient" />
    <linearGradient
       id="linear-gradient-8"
       x1="60.150002"
       y1="75.82"
       x2="60.150002"
       y2="13.97"
       xlink:href="#linear-gradient" />
  </defs>
  <title
     id="title55">Bluesky_Logo_Final</title>
  <metadata
     id="metadata427">
    <rdf:RDF>
      <cc:Work
         rdf:about="">
        <dc:title>Bluesky_Logo_Final</dc:title>
      </cc:Work>
    </rdf:RDF>
  </metadata>
  <g
     id="g5537"
     transform="translate(0,7.0000003)">
    <path
       style="fill:none;stroke:#5db0d8;stroke-width:2;stroke-linecap:round;stroke-dasharray:none;stroke-opacity:1"
       d="m 25,56 v 5 H 15"
       id="path509"
       sodipodi:nodetypes="ccc" />
    <circle
       style="fill:#ffffff;stroke:#5db0d8;stroke-width:1.81818;stroke-linecap:round;stroke-dasharray:none;stroke-opacity:1"
       id="path1117"
       cx="10"
       cy="61.909088"
       r="4.090909" />
    <path
       style="fill:none;stroke:#5db0d8;stroke-width:2;stroke-linecap:round;stroke-dasharray:none;stroke-opacity:1"
       d="M 20,56 V 71 H 30"
       id="path509-6"
       sodipodi:nodetypes="ccc" />
    <circle
       style="fill:#ffffff;stroke:#5db0d8;stroke-width:1.81818;stroke-linecap:round;stroke-dasharray:none;stroke-opacity:1"
       id="path1117-0"
       cx="30.909092"
       cy="71"
       r="4.090909" />
    <path
       style="fill:none;stroke:#5db0d8;stroke-width:2;stroke-linecap:round;stroke-dasharray:none;stroke-opacity:1"
       d="M 45,56.5 V 66"
       id="path509-1"
       sodipodi:nodetypes="cc" />
    <circle
       style="fill:#ffffff;stroke:#5db0d8;stroke-width:1.81818;stroke-linecap:round;stroke-dasharray:none;stroke-opacity:1"
       id="path1117-0-1"
       cx="45"
       cy="65.090912"
       r="4.090909" />
    <path
       style="fill:none;stroke:#5db0d8;stroke-width:2;stroke-linecap:round;stroke-dasharray:none;stroke-opacity:1"
       d="m 65,56 v 5 h 10"
       id="path509-18"
       sodipodi:nodetypes="ccc" />
    <circle
       style="fill:#ffffff;stroke:#5db0d8;stroke-width:1.81818;stroke-linecap:round;stroke-dasharray:none;stroke-opacity:1"
       id="path1117-3"
       cx="-80"
       cy="61.909088"
       r="4.090909"
       transform="scale(-1,1)" />
    <path
       style="fill:none;stroke:#5db0d8;stroke-width:2;stroke-linecap:round;stroke-dasharray:none;stroke-opacity:1"
       d="M 70,56 V 71 H 60"
       id="path509-6-1"
       sodipodi:nodetypes="ccc" />
    <circle
       style="fill:#ffffff;stroke:#5db0d8;stroke-width:1.81818;stroke-linecap:round;stroke-dasharray:none;stroke-opacity:1"
       id="path1117-0-4"
       cx="-59.090912"
       cy="71"
       r="4.090909"
       transform="scale(-1,1)" />
    <g
       id="g4070"
       transform="matrix(0.99810634,0,0,0.99810634,-15.105588,-13.765794)">
      <path
         class="cls-7"
         d="m 93.21,47.77 a 7.4,7.4 0 0 0 -2.41,-1.67 7.57,7.57 0 0 0 -3.07,-0.62 7.7,7.7 0 0 0 -3.12,0.62 7,7 0 0 0 -2.39,1.7 8,8 0 0 0 -1.55,2.56 8.72,8.72 0 0 0 -0.57,3.15 9,9 0 0 0 0.57,3.25 7.07,7.07 0 0 0 4,4.13 7.84,7.84 0 0 0 3.07,0.59 7.56,7.56 0 0 0 3.07,-0.62 7.38,7.38 0 0 0 2.41,-1.67 7.27,7.27 0 0 0 1.55,-2.51 9,9 0 0 0 0.54,-3.17 9.23,9.23 0 0 0 -0.54,-3.2 7.24,7.24 0 0 0 -1.56,-2.54 z"
         id="path69"
         style="fill:url(#linear-gradient-7)" />
      <path
         class="cls-8"
         d="m 88.4,36.36 c -0.24,0 -0.48,0 -0.72,0 a 28.18,28.18 0 0 0 -52.29,-8 20.89,20.89 0 0 0 0.51,41.77 h 52.5 a 16.905,16.905 0 1 0 0,-33.81 z m 11.73,22.36 a 12,12 0 0 1 -2.75,4.13 12.87,12.87 0 0 1 -4.21,2.71 14.12,14.12 0 0 1 -5.34,1 15.51,15.51 0 0 1 -5.34,-0.89 11.35,11.35 0 0 1 -4.2,-2.67 12.09,12.09 0 0 1 -2.75,-4.43 18,18 0 0 1 -1,-6.25 V 32.21 a 2.39,2.39 0 0 1 0.79,-2 3.42,3.42 0 0 1 2.21,-0.64 5.63,5.63 0 0 1 1.62,0.22 q 0.74,0.22 1,0.32 v 14.15 a 10,10 0 0 1 3.39,-2.68 10.76,10.76 0 0 1 5,-1.11 12.78,12.78 0 0 1 5,1 11.93,11.93 0 0 1 4,2.71 12.6,12.6 0 0 1 2.66,4.13 13.92,13.92 0 0 1 1,5.24 13.67,13.67 0 0 1 -1.09,5.17 z"
         id="path71"
         style="fill:url(#linear-gradient-8)" />
    </g>
  </g>
</svg>
